<?xml version="1.0" encoding="UTF-8"?>
<svg id="Layer_2" data-name="Layer 2" xmlns="http://www.w3.org/2000/svg" viewBox="0 0 1247.93 68.81">
  <defs>
    <style>
      .cls-1 {
        fill: #2563eb;
      }
    </style>
  </defs>
  <g id="Layer_1-2" data-name="Layer 1">
    <g>
      <g>
        <path d="M165.42,67.94V.86h26.35c5.05,0,9.36.58,12.94,1.72,3.58,1.15,6.31,2.73,8.19,4.74,1.88,2.01,3.24,4.2,4.07,6.56.83,2.36,1.25,4.98,1.25,7.86,0,4.6-1.34,8.66-4.03,12.17s-6.26,5.91-10.73,7.19l20.12,26.83h-14.09l-18.3-24.63h-14.18v24.63h-11.6ZM177.01,11.79v20.6h15.05c4.41,0,7.86-.94,10.35-2.83,2.49-1.88,3.74-4.49,3.74-7.81s-1.1-5.65-3.31-7.38c-2.2-1.72-5.99-2.59-11.36-2.59h-14.47Z"/>
        <path d="M224.55.86h56.64v10.92h-22.52v56.16h-11.6V11.79h-22.52V.86Z"/>
        <path d="M318.95,32.1h28.94v25.97c-3.07,3.39-6.95,6.01-11.64,7.86-4.7,1.85-9.63,2.78-14.81,2.78-10.48,0-19.05-3.15-25.73-9.44-6.68-6.29-10.01-14.58-10.01-24.87,0-9.71,3.26-17.86,9.77-24.44,6.52-6.58,14.76-9.87,24.72-9.87,5.69,0,10.84.96,15.48,2.87,4.63,1.92,8.19,4.57,10.68,7.95l-7.76,7.38c-4.22-4.73-10.16-7.09-17.82-7.09-6.96,0-12.54,2.09-16.72,6.28-4.18,4.18-6.28,9.82-6.28,16.91s2.2,12.89,6.61,17.01c4.41,4.12,10.16,6.18,17.25,6.18,6.07,0,11.12-1.57,15.14-4.7v-10.25h-17.82v-10.54Z"/>
        <path d="M385.17.86h8.82l29.42,67.08h-12.17l-6.52-14.85h-30.57l-6.42,14.85h-11.98L385.17.86ZM378.37,43.12h22.04l-11.02-25.49-11.02,25.49Z"/>
        <path d="M462.22,32.1h28.94v25.97c-3.07,3.39-6.95,6.01-11.64,7.86-4.7,1.85-9.63,2.78-14.81,2.78-10.48,0-19.05-3.15-25.73-9.44-6.68-6.29-10.01-14.58-10.01-24.87,0-9.71,3.26-17.86,9.77-24.44,6.52-6.58,14.76-9.87,24.72-9.87,5.69,0,10.84.96,15.48,2.87,4.63,1.92,8.19,4.57,10.68,7.95l-7.76,7.38c-4.22-4.73-10.16-7.09-17.82-7.09-6.96,0-12.54,2.09-16.72,6.28-4.18,4.18-6.28,9.82-6.28,16.91s2.2,12.89,6.61,17.01c4.41,4.12,10.16,6.18,17.25,6.18,6.07,0,11.12-1.57,15.14-4.7v-10.25h-17.82v-10.54Z"/>
        <path d="M505.83.86h49.83v10.92h-38.24v16.87h35.74v10.54h-35.74v17.82h39.19v10.92h-50.79V.86Z"/>
        <g>
          <path class="cls-1" d="M150.92,34.4c0-9.65-3.31-17.78-9.92-24.39C134.39,3.4,126.26.1,116.61.1s-17.78,3.26-24.39,9.78c-.23.22-.43.45-.65.68l7.71,9.03c.52-.64,1.07-1.26,1.66-1.85,4.38-4.34,9.6-6.52,15.67-6.52s11.37,2.16,15.72,6.47c4.34,4.31,6.52,9.89,6.52,16.72h-7.3l13.55,15.87,13.55-15.87h-7.72Z"/>
          <path class="cls-1" d="M132.33,51.08c-4.34,4.34-9.58,6.52-15.72,6.52s-11.61-2.16-15.86-6.47c-4.25-4.31-6.37-9.89-6.37-16.72h0s6.96,0,6.96,0l-13.55-15.87-13.55,15.87h8.06c0,9.77,3.32,17.94,9.97,24.48,6.64,6.55,14.76,9.82,24.34,9.82s17.7-3.26,24.34-9.77c.17-.16.32-.34.48-.5l-7.66-8.97c-.46.55-.93,1.1-1.45,1.61Z"/>
        </g>
        <polygon points="58.17 .86 34.21 32.01 10.25 .86 0 .86 0 67.94 11.6 67.94 11.6 21.37 32.49 48.11 34.21 50.31 35.94 48.11 56.83 21.37 56.83 67.94 68.42 67.94 68.42 .86 58.17 .86"/>
      </g>
      <g>
        <path d="M577.56,67.94V.86h24.82c16.8,0,25.2,6.36,25.2,19.07,0,4.98-1.69,9.17-5.08,12.55-3.39,3.39-7.79,5.43-13.22,6.13l23.09,29.32h-6.32l-22.04-28.27h-21.37v28.27h-5.08ZM582.64,5.65v29.23h20.03c5.88,0,10.62-1.37,14.23-4.12,3.61-2.75,5.41-6.36,5.41-10.83,0-9.52-6.74-14.28-20.22-14.28h-19.45Z"/>
        <path d="M642.92.86h47.05v4.79h-41.97v25.78h39.19v4.79h-39.19v26.93h42.93v4.79h-48.01V.86Z"/>
        <path d="M755.91,67.94l-46.19-57.88v57.88h-4.89V.86h4.22l46.09,58.07V.86h4.89v67.08h-4.12Z"/>
        <path d="M776.32.86h47.05v4.79h-41.97v25.78h39.19v4.79h-39.19v26.93h42.93v4.79h-48.01V.86Z"/>
        <path d="M902.25,67.94h-4.79l-20.51-58.94-20.22,58.94h-4.89L830.95.86h5.46l18.21,58.46L874.65.86h4.7l20.51,58.46L917.2.86h4.98l-19.93,67.08Z"/>
        <path d="M948.73.58h4.5l29.42,67.37h-5.37l-8.72-19.65h-35.65l-8.43,19.65h-5.17L948.73.58ZM935.13,43.51h31.53l-15.91-36.51-15.62,36.51Z"/>
        <path d="M991.67.86h5.08v62.29h41.78v4.79h-46.86V.86Z"/>
        <path d="M1086.93,43.84c-1.6-1.82-3.69-3.21-6.28-4.17-2.59-.96-5.43-1.79-8.53-2.49-3.1-.7-6.2-1.49-9.29-2.35-3.1-.86-5.94-1.92-8.53-3.16-2.59-1.25-4.68-3.05-6.28-5.41-1.6-2.36-2.4-5.24-2.4-8.63,0-4.92,2.22-9.09,6.66-12.51,4.44-3.42,10.24-5.13,17.39-5.13,10.92,0,18.72,2.91,23.38,8.72l-3.16,3.26c-5.05-4.79-11.76-7.19-20.12-7.19-2.68,0-5.38.35-8.1,1.05-2.72.7-5.19,2.06-7.43,4.07-2.24,2.01-3.35,4.49-3.35,7.43,0,2.68.8,4.95,2.4,6.8s3.69,3.27,6.28,4.26c2.59.99,5.43,1.85,8.53,2.59s6.2,1.52,9.29,2.35c3.1.83,5.94,1.85,8.53,3.07,2.59,1.21,4.68,2.99,6.28,5.32,1.6,2.33,2.4,5.16,2.4,8.48,0,5.49-2.24,9.97-6.71,13.42-4.47,3.45-10.13,5.18-16.96,5.18-5.69,0-10.94-1.18-15.76-3.55-4.82-2.36-8.45-5.3-10.88-8.82l3.74-3.45c2.17,2.94,5.3,5.51,9.39,7.71,4.09,2.2,8.78,3.31,14.09,3.31,4.73,0,8.88-1.23,12.46-3.69,3.58-2.46,5.37-5.7,5.37-9.73,0-2.68-.8-4.94-2.4-6.76Z"/>
        <path d="M1106.72,61.19c.8-.8,1.81-1.2,3.02-1.2,1.09,0,2.01.4,2.78,1.2.77.8,1.15,1.71,1.15,2.73,0,1.15-.37,2.14-1.1,2.97-.74.83-1.68,1.25-2.83,1.25-1.28,0-2.3-.42-3.07-1.25s-1.15-1.82-1.15-2.97c0-1.02.4-1.93,1.2-2.73Z"/>
        <path d="M1182.48,58.07c-2.3,3.13-5.7,5.7-10.21,7.71-4.5,2.01-9.31,3.02-14.42,3.02-10.61,0-19.04-3.11-25.3-9.34s-9.39-14.58-9.39-25.06c0-9.9,3.04-18.11,9.1-24.63s14.18-9.77,24.34-9.77c5.56,0,10.51.99,14.85,2.97,4.34,1.98,7.7,4.41,10.06,7.28l-2.97,3.35c-3.26-3-6.53-5.22-9.82-6.66-3.29-1.44-7.46-2.16-12.51-2.16-8.63,0-15.41,2.75-20.36,8.24-4.95,5.49-7.43,12.62-7.43,21.37s2.7,16.12,8.1,21.51c5.4,5.4,12.57,8.1,21.51,8.1s15.97-3.1,21.66-9.3l2.78,3.35Z"/>
        <path d="M1214.01.58h4.5l29.42,67.37h-5.37l-8.72-19.65h-35.65l-8.43,19.65h-5.17L1214.01.58ZM1200.4,43.51h31.53l-15.91-36.51-15.62,36.51Z"/>
      </g>
    </g>
  </g>
</svg>