<?xml version="1.0" encoding="UTF-8"?>
<svg id="Layer_2" data-name="Layer 2" xmlns="http://www.w3.org/2000/svg" viewBox="0 0 858.83 47.35">
  <defs>
    <style>
      .cls-1 {
        fill: #fff;
      }
    </style>
  </defs>
  <g id="Layer_1-2" data-name="Layer 1">
    <g>
      <g>
        <path class="cls-1" d="M113.84,46.76V.59h18.14c3.47,0,6.44.4,8.9,1.19,2.46.79,4.34,1.88,5.64,3.26,1.3,1.38,2.23,2.89,2.8,4.52.57,1.63.86,3.43.86,5.41,0,3.17-.92,5.96-2.77,8.38-1.85,2.42-4.31,4.07-7.39,4.95l13.85,18.47h-9.69l-12.6-16.95h-9.76v16.95h-7.98ZM121.82,8.11v14.18h10.35c3.03,0,5.41-.65,7.12-1.95,1.71-1.3,2.57-3.09,2.57-5.38s-.76-3.89-2.28-5.08c-1.52-1.19-4.12-1.78-7.82-1.78h-9.96Z"/>
        <path class="cls-1" d="M154.53.59h38.98v7.52h-15.5v38.65h-7.98V8.11h-15.5V.59Z"/>
        <path class="cls-1" d="M219.5,22.09h19.92v17.87c-2.11,2.33-4.78,4.13-8.01,5.41-3.23,1.28-6.63,1.91-10.19,1.91-7.21,0-13.11-2.17-17.71-6.5-4.59-4.33-6.89-10.04-6.89-17.11,0-6.68,2.24-12.29,6.73-16.82C207.83,2.33,213.5.07,220.36.07c3.91,0,7.46.66,10.65,1.98,3.19,1.32,5.64,3.14,7.35,5.47l-5.34,5.08c-2.9-3.25-6.99-4.88-12.27-4.88-4.79,0-8.63,1.44-11.51,4.32s-4.32,6.76-4.32,11.64,1.52,8.87,4.55,11.71c3.03,2.84,6.99,4.25,11.87,4.25,4.18,0,7.65-1.08,10.42-3.23v-7.06h-12.27v-7.25Z"/>
        <path class="cls-1" d="M265.07.59h6.07l20.25,46.16h-8.38l-4.48-10.22h-21.04l-4.42,10.22h-8.24L265.07.59ZM260.39,29.68h15.17l-7.58-17.54-7.58,17.54Z"/>
        <path class="cls-1" d="M318.1,22.09h19.92v17.87c-2.11,2.33-4.78,4.13-8.01,5.41-3.23,1.28-6.63,1.91-10.19,1.91-7.21,0-13.11-2.17-17.71-6.5-4.59-4.33-6.89-10.04-6.89-17.11,0-6.68,2.24-12.29,6.73-16.82S312.1.07,318.96.07c3.91,0,7.46.66,10.65,1.98,3.19,1.32,5.64,3.14,7.35,5.47l-5.34,5.08c-2.9-3.25-6.99-4.88-12.27-4.88-4.79,0-8.63,1.44-11.51,4.32-2.88,2.88-4.32,6.76-4.32,11.64s1.52,8.87,4.55,11.71c3.03,2.84,6.99,4.25,11.87,4.25,4.18,0,7.65-1.08,10.42-3.23v-7.06h-12.27v-7.25Z"/>
        <path class="cls-1" d="M348.11.59h34.29v7.52h-26.31v11.61h24.6v7.25h-24.6v12.27h26.97v7.52h-34.95V.59Z"/>
        <g>
          <path class="cls-1" d="M103.86,23.68c0-6.64-2.28-12.23-6.83-16.78S86.89.07,80.25.07s-12.23,2.24-16.78,6.73c-.16.15-.3.31-.45.47l5.31,6.22c.36-.44.73-.87,1.14-1.28,3.01-2.99,6.61-4.48,10.78-4.48s7.83,1.48,10.82,4.45c2.99,2.97,4.48,6.8,4.48,11.51h-5.02l9.32,10.92,9.32-10.92h-5.31Z"/>
          <path class="cls-1" d="M91.07,35.15c-2.99,2.99-6.6,4.48-10.82,4.48s-7.99-1.48-10.91-4.45c-2.92-2.97-4.39-6.8-4.39-11.51h0s4.79,0,4.79,0l-9.32-10.92-9.32,10.92h5.54c0,6.73,2.29,12.34,6.86,16.85,4.57,4.51,10.16,6.76,16.75,6.76s12.18-2.24,16.75-6.73c.12-.11.22-.23.33-.35l-5.27-6.17c-.31.38-.64.75-1,1.11Z"/>
        </g>
        <polygon class="cls-1" points="40.03 .59 23.54 22.03 7.06 .59 0 .59 0 46.76 7.98 46.76 7.98 14.71 22.36 33.11 23.54 34.63 24.73 33.11 39.11 14.71 39.11 46.76 47.09 46.76 47.09 .59 40.03 .59"/>
      </g>
      <g>
        <path class="cls-1" d="M397.48,46.76V.59h17.08c11.56,0,17.34,4.37,17.34,13.12,0,3.43-1.17,6.31-3.5,8.64-2.33,2.33-5.36,3.74-9.1,4.22l15.89,20.18h-4.35l-15.17-19.46h-14.71v19.46h-3.5ZM400.97,3.89v20.11h13.78c4.04,0,7.31-.95,9.79-2.84,2.48-1.89,3.73-4.37,3.73-7.45,0-6.55-4.64-9.83-13.91-9.83h-13.39Z"/>
        <path class="cls-1" d="M442.46.59h32.38v3.3h-28.89v17.74h26.97v3.3h-26.97v18.53h29.55v3.3h-33.04V.59Z"/>
        <path class="cls-1" d="M520.22,46.76l-31.79-39.83v39.83h-3.36V.59h2.9l31.72,39.97V.59h3.36v46.16h-2.84Z"/>
        <path class="cls-1" d="M534.27.59h32.38v3.3h-28.89v17.74h26.97v3.3h-26.97v18.53h29.55v3.3h-33.04V.59Z"/>
        <path class="cls-1" d="M620.93,46.76h-3.3l-14.11-40.56-13.91,40.56h-3.36l-14.38-46.16h3.76l12.53,40.23,13.78-40.23h3.23l14.11,40.23,11.94-40.23h3.43l-13.72,46.16Z"/>
        <path class="cls-1" d="M652.92.4h3.1l20.25,46.36h-3.69l-6-13.52h-24.53l-5.8,13.52h-3.56L652.92.4ZM643.56,29.94h21.7l-10.95-25.13-10.75,25.13Z"/>
        <path class="cls-1" d="M682.47.59h3.5v42.87h28.75v3.3h-32.25V.59Z"/>
        <path class="cls-1" d="M748.03,30.17c-1.1-1.25-2.54-2.21-4.32-2.87-1.78-.66-3.74-1.23-5.87-1.71-2.13-.48-4.26-1.02-6.4-1.62s-4.09-1.32-5.87-2.18c-1.78-.86-3.22-2.1-4.32-3.73-1.1-1.63-1.65-3.61-1.65-5.94,0-3.39,1.53-6.25,4.58-8.61,3.06-2.35,7.05-3.53,11.97-3.53,7.52,0,12.88,2,16.09,6l-2.18,2.24c-3.47-3.3-8.09-4.95-13.85-4.95-1.85,0-3.7.24-5.57.73-1.87.48-3.57,1.42-5.11,2.8-1.54,1.38-2.31,3.09-2.31,5.11,0,1.85.55,3.41,1.65,4.68,1.1,1.28,2.54,2.25,4.32,2.93,1.78.68,3.74,1.28,5.87,1.78,2.13.51,4.27,1.04,6.4,1.62,2.13.57,4.09,1.28,5.87,2.11,1.78.84,3.22,2.06,4.32,3.66,1.1,1.6,1.65,3.55,1.65,5.84,0,3.78-1.54,6.86-4.62,9.23-3.08,2.37-6.97,3.56-11.67,3.56-3.91,0-7.53-.81-10.85-2.44-3.32-1.63-5.81-3.65-7.49-6.07l2.57-2.37c1.49,2.02,3.65,3.79,6.46,5.31,2.81,1.52,6.05,2.28,9.69,2.28,3.25,0,6.11-.85,8.57-2.54,2.46-1.69,3.69-3.92,3.69-6.69,0-1.85-.55-3.4-1.65-4.65Z"/>
        <path class="cls-1" d="M761.65,42.11c.55-.55,1.24-.82,2.08-.82.75,0,1.39.27,1.91.82.53.55.79,1.18.79,1.88,0,.79-.25,1.47-.76,2.04-.51.57-1.15.86-1.95.86-.88,0-1.58-.29-2.11-.86-.53-.57-.79-1.25-.79-2.04,0-.7.27-1.33.82-1.88Z"/>
        <path class="cls-1" d="M813.78,39.97c-1.58,2.15-3.92,3.92-7.02,5.31-3.1,1.38-6.41,2.08-9.93,2.08-7.3,0-13.1-2.14-17.41-6.43s-6.46-10.04-6.46-17.25c0-6.81,2.09-12.46,6.27-16.95,4.18-4.48,9.76-6.73,16.75-6.73,3.83,0,7.23.68,10.22,2.04,2.99,1.36,5.3,3.03,6.92,5.01l-2.04,2.31c-2.24-2.07-4.5-3.59-6.76-4.58-2.26-.99-5.13-1.48-8.61-1.48-5.94,0-10.61,1.89-14.01,5.67s-5.11,8.68-5.11,14.71,1.86,11.09,5.57,14.81c3.71,3.72,8.65,5.57,14.81,5.57s10.99-2.13,14.9-6.4l1.91,2.31Z"/>
        <path class="cls-1" d="M835.49.4h3.1l20.25,46.36h-3.69l-6-13.52h-24.53l-5.8,13.52h-3.56L835.49.4ZM826.12,29.94h21.7l-10.95-25.13-10.75,25.13Z"/>
      </g>
    </g>
  </g>
</svg>